{
	"asset":{
		"generator":"Khronos glTF Blender I/O v4.4.55",
		"version":"2.0"
	},
	"scene":0,
	"scenes":[
		{
			"name":"Scene",
			"nodes":[
				13,
				18
			]
		}
	],
	"nodes":[
		{
			"name":"Bone.002",
			"rotation":[
				0.24324403703212738,
				0.6312406063079834,
				0.4332992136478424,
				0.5954993963241577
			],
			"scale":[
				0.9999997615814209,
				0.9999997019767761,
				0.9999998807907104
			],
			"translation":[
				-0.021613428369164467,
				0.0730472207069397,
				-0.0044674500823020935
			]
		},
		{
			"name":"Bone.003",
			"rotation":[
				0.27098384499549866,
				0.6327289342880249,
				0.4084963798522949,
				0.5994603037834167
			],
			"scale":[
				0.9999999403953552,
				0.9999999403953552,
				0.9999999403953552
			],
			"translation":[
				0.0007185402791947126,
				0.07046671956777573,
				0.0005275666480883956
			]
		},
		{
			"name":"Bone.004",
			"rotation":[
				0.2432439923286438,
				0.6312407851219177,
				0.43329909443855286,
				0.5954992771148682
			],
			"scale":[
				0.9999998807907104,
				0.9999997615814209,
				1
			],
			"translation":[
				0.006886348128318787,
				0.05433627963066101,
				0.009952545166015625
			]
		},
		{
			"name":"Bone.005",
			"rotation":[
				0.24324394762516022,
				0.6312407851219177,
				0.43329918384552,
				0.5954992771148682
			],
			"translation":[
				-0.005111933685839176,
				0.05256590247154236,
				0.006310619879513979
			]
		},
		{
			"name":"Bone.006",
			"rotation":[
				0.2432440221309662,
				0.6312408447265625,
				0.43329909443855286,
				0.5954991579055786
			],
			"scale":[
				0.9999999403953552,
				0.9999998807907104,
				1.0000001192092896
			],
			"translation":[
				-0.017770348116755486,
				0.0602899044752121,
				0.004126434214413166
			]
		},
		{
			"name":"Bone.007",
			"rotation":[
				-0.3029060661792755,
				-0.11156004667282104,
				-0.12778621912002563,
				0.9378021955490112
			],
			"translation":[
				-4.656612873077393e-10,
				0.03951890021562576,
				1.862645149230957e-09
			]
		},
		{
			"name":"Bone.008",
			"rotation":[
				-0.5564868450164795,
				0.4360557198524475,
				0.43541383743286133,
				0.5573084950447083
			],
			"scale":[
				1.0000001192092896,
				1.000000238418579,
				1.0000001192092896
			],
			"translation":[
				-0.004404640290886164,
				0.039499495178461075,
				-0.0011245976202189922
			]
		},
		{
			"children":[
				0,
				1,
				2,
				3,
				4,
				5,
				6
			],
			"name":"Bone",
			"rotation":[
				0.318685919046402,
				-0.15155939757823944,
				-0.6329085230827332,
				0.6891268491744995
			],
			"translation":[
				-0.05976192280650139,
				-0.0050377314910292625,
				-0.052885789424180984
			]
		},
		{
			"mesh":0,
			"name":"HPG2_lambert1_0",
			"skin":0
		},
		{
			"children":[
				8,
				7
			],
			"name":"Armature",
			"rotation":[
				0.011793768964707851,
				-0.0618954673409462,
				-0.04687828943133354,
				0.9969114661216736
			],
			"scale":[
				100.00001525878906,
				99.9999771118164,
				99.9999771118164
			],
			"translation":[
				-3.1999025344848633,
				0.8253927230834961,
				0.3806535005569458
			]
		},
		{
			"children":[
				9
			],
			"name":"HPG2",
			"rotation":[
				-0.7132622599601746,
				0.07691466063261032,
				-0.010618744418025017,
				0.6965833902359009
			],
			"translation":[
				3.8514492511749268,
				-0.8615471124649048,
				1.0761113166809082
			]
		},
		{
			"children":[
				10
			],
			"name":"RootNode"
		},
		{
			"children":[
				11
			],
			"name":"95182133dcae4341994310f649f832b6.fbx",
			"rotation":[
				0.70710688829422,
				0,
				0,
				0.7071066498756409
			],
			"scale":[
				0.009999999776482582,
				0.010000000707805157,
				0.010000000707805157
			]
		},
		{
			"children":[
				12
			],
			"name":"Sketchfab_model",
			"rotation":[
				-0.70710688829422,
				0,
				0,
				0.7071066498756409
			],
			"translation":[
				-0.006583309266716242,
				0.0010010137921199203,
				-0.005378297530114651
			]
		},
		{
			"mesh":1,
			"name":"HPG2_lambert1_0.001"
		},
		{
			"children":[
				14
			],
			"name":"HPG2.001",
			"rotation":[
				-0.7132622599601746,
				0.07691466063261032,
				-0.010618744418025017,
				0.6965833902359009
			],
			"translation":[
				3.8514492511749268,
				-0.8615471124649048,
				1.0761113166809082
			]
		},
		{
			"children":[
				15
			],
			"name":"RootNode.001"
		},
		{
			"children":[
				16
			],
			"name":"95182133dcae4341994310f649f832b6.fbx.001",
			"rotation":[
				0.70710688829422,
				0,
				0,
				0.7071066498756409
			],
			"scale":[
				0.009999999776482582,
				0.010000000707805157,
				0.010000000707805157
			]
		},
		{
			"children":[
				17
			],
			"name":"Sketchfab_model.001",
			"rotation":[
				-0.70710688829422,
				0,
				0,
				0.7071066498756409
			],
			"translation":[
				-0.006583309266716242,
				0.0010010137921199203,
				-0.005378297530114651
			]
		}
	],
	"materials":[
		{
			"doubleSided":true,
			"name":"lambert1",
			"pbrMetallicRoughness":{
				"baseColorTexture":{
					"index":0
				},
				"metallicFactor":0.44545453786849976,
				"roughnessFactor":0.8045454621315002
			}
		},
		{
			"doubleSided":true,
			"name":"lambert1.001",
			"pbrMetallicRoughness":{
				"baseColorTexture":{
					"index":1
				},
				"metallicFactor":0.44545453786849976,
				"roughnessFactor":0.8045454621315002
			}
		}
	],
	"meshes":[
		{
			"name":"HPG2_lambert1_0",
			"primitives":[
				{
					"attributes":{
						"POSITION":0,
						"NORMAL":1,
						"TEXCOORD_0":2,
						"TEXCOORD_1":3,
						"TEXCOORD_2":4,
						"TEXCOORD_3":5,
						"JOINTS_0":6,
						"WEIGHTS_0":7
					},
					"indices":8,
					"material":0
				}
			]
		},
		{
			"name":"HPG2_lambert1_0.001",
			"primitives":[
				{
					"attributes":{
						"POSITION":10,
						"NORMAL":11,
						"TEXCOORD_0":12,
						"TEXCOORD_1":13,
						"TEXCOORD_2":14,
						"TEXCOORD_3":15
					},
					"indices":8,
					"material":1
				}
			]
		}
	],
	"textures":[
		{
			"sampler":0,
			"source":0
		},
		{
			"sampler":0,
			"source":0
		}
	],
	"images":[
		{
			"mimeType":"image/png",
			"name":"HPReverbG2Texture",
			"uri":"HPReverbG2Texture.png"
		}
	],
	"skins":[
		{
			"inverseBindMatrices":9,
			"joints":[
				7,
				0,
				1,
				2,
				3,
				4,
				5,
				6
			],
			"name":"Armature"
		}
	],
	"accessors":[
		{
			"bufferView":0,
			"componentType":5126,
			"count":2784,
			"max":[
				0.06396293640136719,
				0.0479571670293808,
				0.06470225006341934
			],
			"min":[
				-0.0818401426076889,
				-0.07105003297328949,
				-0.05015559121966362
			],
			"type":"VEC3"
		},
		{
			"bufferView":1,
			"componentType":5126,
			"count":2784,
			"type":"VEC3"
		},
		{
			"bufferView":2,
			"componentType":5126,
			"count":2784,
			"type":"VEC2"
		},
		{
			"bufferView":3,
			"componentType":5126,
			"count":2784,
			"type":"VEC2"
		},
		{
			"bufferView":4,
			"componentType":5126,
			"count":2784,
			"type":"VEC2"
		},
		{
			"bufferView":5,
			"componentType":5126,
			"count":2784,
			"type":"VEC2"
		},
		{
			"bufferView":6,
			"componentType":5121,
			"count":2784,
			"type":"VEC4"
		},
		{
			"bufferView":7,
			"componentType":5126,
			"count":2784,
			"type":"VEC4"
		},
		{
			"bufferView":8,
			"componentType":5123,
			"count":9309,
			"type":"SCALAR"
		},
		{
			"bufferView":9,
			"componentType":5126,
			"count":8,
			"type":"MAT4"
		},
		{
			"bufferView":10,
			"componentType":5126,
			"count":2784,
			"max":[
				3.960500717163086,
				5.327263832092285,
				5.700209617614746
			],
			"min":[
				-10.596328735351562,
				-6.048277378082275,
				-7.373876571655273
			],
			"type":"VEC3"
		},
		{
			"bufferView":11,
			"componentType":5126,
			"count":2784,
			"type":"VEC3"
		},
		{
			"bufferView":12,
			"componentType":5126,
			"count":2784,
			"type":"VEC2"
		},
		{
			"bufferView":13,
			"componentType":5126,
			"count":2784,
			"type":"VEC2"
		},
		{
			"bufferView":14,
			"componentType":5126,
			"count":2784,
			"type":"VEC2"
		},
		{
			"bufferView":15,
			"componentType":5126,
			"count":2784,
			"type":"VEC2"
		}
	],
	"bufferViews":[
		{
			"buffer":0,
			"byteLength":33408,
			"byteOffset":0,
			"target":34962
		},
		{
			"buffer":0,
			"byteLength":33408,
			"byteOffset":33408,
			"target":34962
		},
		{
			"buffer":0,
			"byteLength":22272,
			"byteOffset":66816,
			"target":34962
		},
		{
			"buffer":0,
			"byteLength":22272,
			"byteOffset":89088,
			"target":34962
		},
		{
			"buffer":0,
			"byteLength":22272,
			"byteOffset":111360,
			"target":34962
		},
		{
			"buffer":0,
			"byteLength":22272,
			"byteOffset":133632,
			"target":34962
		},
		{
			"buffer":0,
			"byteLength":11136,
			"byteOffset":155904,
			"target":34962
		},
		{
			"buffer":0,
			"byteLength":44544,
			"byteOffset":167040,
			"target":34962
		},
		{
			"buffer":0,
			"byteLength":18618,
			"byteOffset":211584,
			"target":34963
		},
		{
			"buffer":0,
			"byteLength":512,
			"byteOffset":230204
		},
		{
			"buffer":0,
			"byteLength":33408,
			"byteOffset":230716,
			"target":34962
		},
		{
			"buffer":0,
			"byteLength":33408,
			"byteOffset":264124,
			"target":34962
		},
		{
			"buffer":0,
			"byteLength":22272,
			"byteOffset":297532,
			"target":34962
		},
		{
			"buffer":0,
			"byteLength":22272,
			"byteOffset":319804,
			"target":34962
		},
		{
			"buffer":0,
			"byteLength":22272,
			"byteOffset":342076,
			"target":34962
		},
		{
			"buffer":0,
			"byteLength":22272,
			"byteOffset":364348,
			"target":34962
		}
	],
	"samplers":[
		{
			"magFilter":9729,
			"minFilter":9987
		}
	],
	"buffers":[
		{
			"byteLength":386620,
			"uri":"HPreverbG2.bin"
		}
	]
}
