{
	"asset":{
		"generator":"Khronos glTF Blender I/O v4.4.55",
		"version":"2.0"
	},
	"scene":0,
	"scenes":[
		{
			"name":"Scene",
			"nodes":[
				4
			]
		}
	],
	"nodes":[
		{
			"mesh":0,
			"name":"HPG2_lambert1_0"
		},
		{
			"children":[
				0
			],
			"name":"HPG2",
			"rotation":[
				-0.7132622599601746,
				0.07691466063261032,
				-0.010618744418025017,
				0.6965833902359009
			],
			"translation":[
				3.8514492511749268,
				-0.8615471124649048,
				1.0761113166809082
			]
		},
		{
			"children":[
				1
			],
			"name":"RootNode"
		},
		{
			"children":[
				2
			],
			"name":"95182133dcae4341994310f649f832b6.fbx",
			"rotation":[
				0.70710688829422,
				0,
				0,
				0.7071066498756409
			],
			"scale":[
				0.009999999776482582,
				0.010000000707805157,
				0.010000000707805157
			]
		},
		{
			"children":[
				3
			],
			"name":"Sketchfab_model",
			"rotation":[
				-0.70710688829422,
				0,
				0,
				0.7071066498756409
			],
			"translation":[
				-0.006583309266716242,
				0.0010010137921199203,
				-0.005378297530114651
			]
		}
	],
	"materials":[
		{
			"doubleSided":true,
			"name":"lambert1",
			"pbrMetallicRoughness":{
				"baseColorTexture":{
					"index":0
				},
				"metallicFactor":0.44545453786849976,
				"roughnessFactor":0.8045454621315002
			}
		}
	],
	"meshes":[
		{
			"name":"HPG2_lambert1_0",
			"primitives":[
				{
					"attributes":{
						"POSITION":0,
						"NORMAL":1,
						"TEXCOORD_0":2,
						"TEXCOORD_1":3,
						"TEXCOORD_2":4,
						"TEXCOORD_3":5
					},
					"indices":6,
					"material":0
				}
			]
		}
	],
	"textures":[
		{
			"sampler":0,
			"source":0
		}
	],
	"images":[
		{
			"mimeType":"image/png",
			"name":"HPReverbG2Texture",
			"uri":"HPReverbG2Texture.png"
		}
	],
	"accessors":[
		{
			"bufferView":0,
			"componentType":5126,
			"count":2784,
			"max":[
				3.960500717163086,
				5.327263832092285,
				5.700209617614746
			],
			"min":[
				-10.596328735351562,
				-6.048277378082275,
				-7.373876571655273
			],
			"type":"VEC3"
		},
		{
			"bufferView":1,
			"componentType":5126,
			"count":2784,
			"type":"VEC3"
		},
		{
			"bufferView":2,
			"componentType":5126,
			"count":2784,
			"type":"VEC2"
		},
		{
			"bufferView":3,
			"componentType":5126,
			"count":2784,
			"type":"VEC2"
		},
		{
			"bufferView":4,
			"componentType":5126,
			"count":2784,
			"type":"VEC2"
		},
		{
			"bufferView":5,
			"componentType":5126,
			"count":2784,
			"type":"VEC2"
		},
		{
			"bufferView":6,
			"componentType":5123,
			"count":9309,
			"type":"SCALAR"
		}
	],
	"bufferViews":[
		{
			"buffer":0,
			"byteLength":33408,
			"byteOffset":0,
			"target":34962
		},
		{
			"buffer":0,
			"byteLength":33408,
			"byteOffset":33408,
			"target":34962
		},
		{
			"buffer":0,
			"byteLength":22272,
			"byteOffset":66816,
			"target":34962
		},
		{
			"buffer":0,
			"byteLength":22272,
			"byteOffset":89088,
			"target":34962
		},
		{
			"buffer":0,
			"byteLength":22272,
			"byteOffset":111360,
			"target":34962
		},
		{
			"buffer":0,
			"byteLength":22272,
			"byteOffset":133632,
			"target":34962
		},
		{
			"buffer":0,
			"byteLength":18618,
			"byteOffset":155904,
			"target":34963
		}
	],
	"samplers":[
		{
			"magFilter":9729,
			"minFilter":9987
		}
	],
	"buffers":[
		{
			"byteLength":174524,
			"uri":"HPreverbG2.bin"
		}
	]
}
